<?xml version="1.0" encoding="utf-8"?>
<!-- Generator: Adobe Illustrator 21.0.0, SVG Export Plug-In . SVG Version: 6.00 Build 0)  -->
<svg version="1.1" id="Layer_1" xmlns="http://www.w3.org/2000/svg" xmlns:xlink="http://www.w3.org/1999/xlink" x="0px" y="0px"
	 viewBox="0 0 240.4 60" style="enable-background:new 0 0 240.4 60;" xml:space="preserve">
<style type="text/css">
	.st0{fill:#EB922F;}
	.st1{fill:#241F21;}
	.st2{fill:#A4DEF8;}
	.st3{fill:#414242;}
	.st4{fill:#F3F4F4;}
</style>
<polyline class="st0" points="201.3,5 201.3,8.9 208.3,13 208.3,5 "/>
<g>
	<path class="st1" d="M68.4,32.8c0,3.6,2.2,6.3,6.2,6.3c3.1,0,4.6-0.9,6.4-2.6l4.3,4.2c-2.9,2.9-5.6,4.4-10.7,4.4
		c-6.6,0-13-3-13-14.4c0-9.2,5-14.4,12.2-14.4C81.6,16.3,86,22,86,29.7v3.1H68.4z M78.5,25c-0.8-1.7-2.3-2.9-4.7-2.9
		c-2.4,0-3.9,1.2-4.7,2.9c-0.4,1-0.6,1.8-0.6,3h10.7C79.1,26.8,78.9,26,78.5,25z"/>
	<path class="st1" d="M123,44.7v-17c0-3.8-2.4-5.1-4.6-5.1c-2.2,0-4.7,1.3-4.7,5v17.2h-7v-17c0-3.8-2.4-5.1-4.6-5.1
		c-2.2,0-4.7,1.3-4.7,5.1v17h-7V16.6h6.8v2.6c1.8-1.9,4.4-2.9,7-2.9c3.1,0,5.7,1.1,7.4,3.6c2.4-2.5,4.9-3.6,8.4-3.6
		c2.8,0,5.3,0.9,6.9,2.5c2.3,2.3,3.1,4.9,3.1,8v18H123z"/>
	<path class="st1" d="M144.3,44.7c-5.7,0-8.1-4-8.1-8V22.7h-3v-5.3h3V9.1l7.1,3.4l0,4.9h5v5.3h-5v13.5c0,1.6,0.8,2.5,2.4,2.5h2.5
		v5.9H144.3z"/>
	<path class="st1" d="M167.6,24.2c-1.1-1.1-2-1.7-3.7-1.7c-2.2,0-4.5,1.6-4.5,5.2v16.9h-7V16.6h6.8v2.7c1.4-1.6,4-3,7.1-3
		c2.8,0,4.7,0.7,6.6,2.6L167.6,24.2z"/>
	<path class="st1" d="M189.1,44.7v-2.4c-1.9,1.9-3.7,2.7-6.9,2.7c-3.2,0-5.5-0.8-7.2-2.5c-1.5-1.6-2.3-3.8-2.3-6.3
		c0-4.5,3.1-8.1,9.6-8.1h6.6v-1.4c0-3.1-1.5-4.4-5.2-4.4c-2.7,0-3.9,0.6-5.4,2.3l-4.5-4.4c2.7-3,5.4-3.9,10.1-3.9
		c7.9,0,12,3.3,12,9.9v18.5H189.1z M188.9,32.8h-5.6c-2.5,0-3.9,1.2-3.9,3.2c0,1.9,1.3,3.2,4,3.2c1.9,0,3.2-0.2,4.4-1.3
		c0.8-0.7,1-1.8,1-3.6V32.8z"/>
	<path class="st1" d="M230.3,44.7v-17c0-3.8-2.4-5.1-4.6-5.1c-2.2,0-4.7,1.3-4.7,5.1v17h-7V16.6h6.9v2.6c1.8-1.9,4.4-2.9,7-2.9
		c2.8,0,5.1,0.9,6.6,2.5c2.3,2.3,2.9,4.9,2.9,8v18H230.3z"/>
</g>
<polygon class="st1" points="201.3,44.7 201.3,13.4 208.3,17.5 208.3,44.7 "/>
<path class="st2" d="M29.3,3.3C14.8,3.3,3.1,15,3.1,29.5c0,7.1,2.8,13.5,7.3,18.2c-0.2-0.6-0.2-1.1-0.2-1.9
	c0-10.7,8.7-19.3,19.3-19.3c10.7,0,19.3,8.7,19.3,19.3c0,0.5-0.1,1-0.3,1.5c4.3-4.7,7-10.9,7-17.8C55.5,15,43.8,3.3,29.3,3.3"/>
<path class="st3" d="M29.3,55.7c-7.4,0-14.1-3.1-18.9-8"/>
<path class="st3" d="M48.6,47.3c-4.8,5.2-11.6,8.4-19.2,8.4"/>
<path class="st3" d="M29.3,55.7c7.6,0,14.5-3.2,19.2-8.4c0.2-0.5,0.3-1,0.3-1.5c0-10.7-8.7-19.3-19.3-19.3
	c-10.7,0-19.3,8.7-19.3,19.3c0,0.8,0,1.3,0.2,1.9C15.2,52.6,21.9,55.7,29.3,55.7"/>
<path class="st3" d="M49,18.9H38.6c-9.4,0-9.4,6-9.4,6s0-6-9.4-6H9.3c0,0-1,12.2,6,12.2h13.9h13.9C50,31.1,49,18.9,49,18.9"/>
<path class="st4" d="M26.8,32.1c0,3.9-3.2,7.1-7.1,7.1c-3.9,0-7.1-3.2-7.1-7.1c0-3.9,3.2-7.1,7.1-7.1C23.6,25,26.8,28.2,26.8,32.1"
	/>
<path class="st3" d="M19.7,39.9c-4.3,0-7.8-3.5-7.8-7.8c0-4.3,3.5-7.8,7.8-7.8c4.3,0,7.8,3.5,7.8,7.8C27.5,36.4,24,39.9,19.7,39.9
	 M19.7,25.7c-3.6,0-6.5,2.9-6.5,6.5c0,3.6,2.9,6.5,6.5,6.5c3.6,0,6.5-2.9,6.5-6.5C26.1,28.6,23.2,25.7,19.7,25.7"/>
<path class="st1" d="M19.7,32.1l1.9-3.5c-0.6-0.3-1.2-0.5-1.9-0.5c-2.2,0-4,1.8-4,4c0,2.2,1.8,4,4,4c2.2,0,4-1.8,4-4
	c0-0.3,0-0.7-0.1-1L19.7,32.1z"/>
<path class="st4" d="M46.3,32.1c0,3.9-3.2,7.1-7.1,7.1c-3.9,0-7.1-3.2-7.1-7.1c0-3.9,3.2-7.1,7.1-7.1C43.1,25,46.3,28.2,46.3,32.1"
	/>
<path class="st3" d="M39.1,39.9c-4.3,0-7.8-3.5-7.8-7.8c0-4.3,3.5-7.8,7.8-7.8c4.3,0,7.8,3.5,7.8,7.8C46.9,36.4,43.4,39.9,39.1,39.9
	 M39.1,25.7c-3.6,0-6.5,2.9-6.5,6.5c0,3.6,2.9,6.5,6.5,6.5c3.6,0,6.5-2.9,6.5-6.5C45.6,28.6,42.7,25.7,39.1,25.7"/>
<path class="st1" d="M39.1,32.1l1.9-3.5c-0.6-0.3-1.2-0.5-1.9-0.5c-2.2,0-4,1.8-4,4c0,2.2,1.8,4,4,4c2.2,0,4-1.8,4-4
	c0-0.3,0-0.7-0.1-1L39.1,32.1z"/>
<polygon class="st0" points="32,34.7 29.4,39.3 26.8,34.7 "/>
<path class="st4" d="M25.1,29.8v3.4c1.2-0.9,2.7-1.4,4.3-1.4c1.6,0,3.1,0.5,4.3,1.4v-3.4c-1.3-0.6-2.8-0.9-4.3-0.9
	C27.8,28.9,26.4,29.2,25.1,29.8"/>
</svg>
