<?xml version="1.0" encoding="UTF-8"?>
<svg width="262px" height="64px" viewBox="0 0 262 64" version="1.1" xmlns="http://www.w3.org/2000/svg" xmlns:xlink="http://www.w3.org/1999/xlink">
    <!-- Generator: Sketch 49 (51002) - http://www.bohemiancoding.com/sketch -->
    <title>Group 2</title>
    <desc>Created with Sketch.</desc>
    <defs></defs>
    <g id="Symbols" stroke="none" stroke-width="1" fill="none" fill-rule="evenodd">
        <g id="Group-2">
            <path d="M79.34,15.764 L84.632,15.764 L84.632,21.956 L84.38,25.16 C85.0520034,24.559997 85.8319956,24.0020026 86.72,23.486 C87.6080044,22.9699974 88.6639939,22.712 89.888,22.712 C91.8320097,22.712 93.2419956,23.3479936 94.118,24.62 C94.9940044,25.8920064 95.432,27.6559887 95.432,29.912 L95.432,41 L90.14,41 L90.14,30.596 C90.14,29.2999935 89.9660017,28.4120024 89.618,27.932 C89.2699983,27.4519976 88.7120038,27.212 87.944,27.212 C87.2719966,27.212 86.6960024,27.3619985 86.216,27.662 C85.7359976,27.9620015 85.2080029,28.3879972 84.632,28.94 L84.632,41 L79.34,41 L79.34,15.764 Z M98.852,32.072 C98.852,30.5839926 99.0919976,29.2580058 99.572,28.094 C100.052002,26.9299942 100.693996,25.952004 101.498,25.16 C102.302004,24.367996 103.231995,23.7620021 104.288,23.342 C105.344005,22.9219979 106.435994,22.712 107.564,22.712 C108.692006,22.712 109.777995,22.9219979 110.822,23.342 C111.866005,23.7620021 112.789996,24.367996 113.594,25.16 C114.398004,25.952004 115.039998,26.9299942 115.52,28.094 C116.000002,29.2580058 116.24,30.5839926 116.24,32.072 C116.24,33.5600074 116.000002,34.8859942 115.52,36.05 C115.039998,37.2140058 114.398004,38.191996 113.594,38.984 C112.789996,39.776004 111.866005,40.3819979 110.822,40.802 C109.777995,41.2220021 108.692006,41.432 107.564,41.432 C106.435994,41.432 105.344005,41.2220021 104.288,40.802 C103.231995,40.3819979 102.302004,39.776004 101.498,38.984 C100.693996,38.191996 100.052002,37.2140058 99.572,36.05 C99.0919976,34.8859942 98.852,33.5600074 98.852,32.072 Z M104.288,32.072 C104.288,33.6320078 104.557997,34.8679954 105.098,35.78 C105.638003,36.6920046 106.459994,37.148 107.564,37.148 C108.644005,37.148 109.459997,36.6920046 110.012,35.78 C110.564003,34.8679954 110.84,33.6320078 110.84,32.072 C110.84,30.5119922 110.564003,29.2760046 110.012,28.364 C109.459997,27.4519954 108.644005,26.996 107.564,26.996 C106.459994,26.996 105.638003,27.4519954 105.098,28.364 C104.557997,29.2760046 104.288,30.5119922 104.288,32.072 Z M118.832,32.072 C118.832,30.5839926 119.071998,29.2580058 119.552,28.094 C120.032002,26.9299942 120.673996,25.952004 121.478,25.16 C122.282004,24.367996 123.211995,23.7620021 124.268,23.342 C125.324005,22.9219979 126.415994,22.712 127.544,22.712 C128.672006,22.712 129.757995,22.9219979 130.802,23.342 C131.846005,23.7620021 132.769996,24.367996 133.574,25.16 C134.378004,25.952004 135.019998,26.9299942 135.5,28.094 C135.980002,29.2580058 136.22,30.5839926 136.22,32.072 C136.22,33.5600074 135.980002,34.8859942 135.5,36.05 C135.019998,37.2140058 134.378004,38.191996 133.574,38.984 C132.769996,39.776004 131.846005,40.3819979 130.802,40.802 C129.757995,41.2220021 128.672006,41.432 127.544,41.432 C126.415994,41.432 125.324005,41.2220021 124.268,40.802 C123.211995,40.3819979 122.282004,39.776004 121.478,38.984 C120.673996,38.191996 120.032002,37.2140058 119.552,36.05 C119.071998,34.8859942 118.832,33.5600074 118.832,32.072 Z M124.268,32.072 C124.268,33.6320078 124.537997,34.8679954 125.078,35.78 C125.618003,36.6920046 126.439994,37.148 127.544,37.148 C128.624005,37.148 129.439997,36.6920046 129.992,35.78 C130.544003,34.8679954 130.82,33.6320078 130.82,32.072 C130.82,30.5119922 130.544003,29.2760046 129.992,28.364 C129.439997,27.4519954 128.624005,26.996 127.544,26.996 C126.439994,26.996 125.618003,27.4519954 125.078,28.364 C124.537997,29.2760046 124.268,30.5119922 124.268,32.072 Z M140.576,27.284 L138.128,27.284 L138.128,23.36 L140.864,23.144 L141.476,18.392 L145.868,18.392 L145.868,23.144 L150.152,23.144 L150.152,27.284 L145.868,27.284 L145.868,34.448 C145.868,35.456005 146.077998,36.1819978 146.498,36.626 C146.918002,37.0700022 147.475997,37.292 148.172,37.292 C148.460001,37.292 148.753999,37.2560004 149.054,37.184 C149.354002,37.1119996 149.623999,37.0280005 149.864,36.932 L150.692,40.784 C150.211998,40.9280007 149.648003,41.0719993 149,41.216 C148.351997,41.3600007 147.596004,41.432 146.732,41.432 C145.627994,41.432 144.686004,41.2640017 143.906,40.928 C143.125996,40.5919983 142.490002,40.124003 141.998,39.524 C141.505998,38.923997 141.146001,38.1980043 140.918,37.346 C140.689999,36.4939957 140.576,35.5520052 140.576,34.52 L140.576,27.284 Z M154.436,35.636 C155.252004,36.2600031 156.031996,36.7279984 156.776,37.04 C157.520004,37.3520016 158.275996,37.508 159.044,37.508 C159.836004,37.508 160.411998,37.3760013 160.772,37.112 C161.132002,36.8479987 161.312,36.4760024 161.312,35.996 C161.312,35.7079986 161.210001,35.4500011 161.006,35.222 C160.801999,34.9939989 160.526002,34.784001 160.178,34.592 C159.829998,34.399999 159.440002,34.2260008 159.008,34.07 C158.575998,33.9139992 158.132002,33.740001 157.676,33.548 C157.123997,33.3319989 156.572003,33.0800014 156.02,32.792 C155.467997,32.5039986 154.964002,32.1500021 154.508,31.73 C154.051998,31.3099979 153.680001,30.8180028 153.392,30.254 C153.103999,29.6899972 152.96,29.0360037 152.96,28.292 C152.96,27.4759959 153.121998,26.7200035 153.446,26.024 C153.770002,25.3279965 154.231997,24.7400024 154.832,24.26 C155.432003,23.7799976 156.151996,23.4020014 156.992,23.126 C157.832004,22.8499986 158.767995,22.712 159.8,22.712 C161.168007,22.712 162.367995,22.9459977 163.4,23.414 C164.432005,23.8820023 165.331996,24.4039971 166.1,24.98 L163.724,28.148 C163.075997,27.6679976 162.440003,27.2960013 161.816,27.032 C161.191997,26.7679987 160.568003,26.636 159.944,26.636 C158.599993,26.636 157.928,27.1039953 157.928,28.04 C157.928,28.3280014 158.023999,28.573999 158.216,28.778 C158.408001,28.982001 158.665998,29.1679992 158.99,29.336 C159.314002,29.5040008 159.685998,29.6659992 160.106,29.822 C160.526002,29.9780008 160.963998,30.1399992 161.42,30.308 C161.996003,30.5240011 162.565997,30.7699986 163.13,31.046 C163.694003,31.3220014 164.209998,31.663998 164.678,32.072 C165.146002,32.480002 165.523999,32.9779971 165.812,33.566 C166.100001,34.1540029 166.244,34.8559959 166.244,35.672 C166.244,36.4880041 166.088002,37.2439965 165.776,37.94 C165.463998,38.6360035 164.996003,39.2419974 164.372,39.758 C163.747997,40.2740026 162.980005,40.6819985 162.068,40.982 C161.155995,41.2820015 160.100006,41.432 158.9,41.432 C157.723994,41.432 156.518006,41.2040023 155.282,40.748 C154.045994,40.2919977 152.972005,39.6920037 152.06,38.948 L154.436,35.636 Z M168.116,23.144 L173.372,23.144 L175.1,31.424 C175.244001,32.3120044 175.375999,33.1879957 175.496,34.052 C175.616001,34.9160043 175.747999,35.8039954 175.892,36.716 L176.036,36.716 C176.204001,35.8039954 176.365999,34.9040044 176.522,34.016 C176.678001,33.1279956 176.863999,32.2640042 177.08,31.424 L179.06,23.144 L183.632,23.144 L185.648,31.424 C185.864001,32.3120044 186.055999,33.1879957 186.224,34.052 C186.392001,34.9160043 186.571999,35.8039954 186.764,36.716 L186.908,36.716 C187.076001,35.8039954 187.213999,34.9160043 187.322,34.052 C187.430001,33.1879957 187.567999,32.3120044 187.736,31.424 L189.428,23.144 L194.324,23.144 L190.04,41 L183.848,41 L182.228,33.872 C182.035999,33.0319958 181.868001,32.1920042 181.724,31.352 C181.579999,30.5119958 181.424001,29.6120048 181.256,28.652 L181.112,28.652 C180.943999,29.6120048 180.794001,30.5119958 180.662,31.352 C180.529999,32.1920042 180.380001,33.0319958 180.212,33.872 L178.628,41 L172.58,41 L168.116,23.144 Z M196.484,32.072 C196.484,30.5839926 196.723998,29.2580058 197.204,28.094 C197.684002,26.9299942 198.325996,25.952004 199.13,25.16 C199.934004,24.367996 200.863995,23.7620021 201.92,23.342 C202.976005,22.9219979 204.067994,22.712 205.196,22.712 C206.324006,22.712 207.409995,22.9219979 208.454,23.342 C209.498005,23.7620021 210.421996,24.367996 211.226,25.16 C212.030004,25.952004 212.671998,26.9299942 213.152,28.094 C213.632002,29.2580058 213.872,30.5839926 213.872,32.072 C213.872,33.5600074 213.632002,34.8859942 213.152,36.05 C212.671998,37.2140058 212.030004,38.191996 211.226,38.984 C210.421996,39.776004 209.498005,40.3819979 208.454,40.802 C207.409995,41.2220021 206.324006,41.432 205.196,41.432 C204.067994,41.432 202.976005,41.2220021 201.92,40.802 C200.863995,40.3819979 199.934004,39.776004 199.13,38.984 C198.325996,38.191996 197.684002,37.2140058 197.204,36.05 C196.723998,34.8859942 196.484,33.5600074 196.484,32.072 Z M201.92,32.072 C201.92,33.6320078 202.189997,34.8679954 202.73,35.78 C203.270003,36.6920046 204.091994,37.148 205.196,37.148 C206.276005,37.148 207.091997,36.6920046 207.644,35.78 C208.196003,34.8679954 208.472,33.6320078 208.472,32.072 C208.472,30.5119922 208.196003,29.2760046 207.644,28.364 C207.091997,27.4519954 206.276005,26.996 205.196,26.996 C204.091994,26.996 203.270003,27.4519954 202.73,28.364 C202.189997,29.2760046 201.92,30.5119922 201.92,32.072 Z M217.508,23.144 L221.828,23.144 L222.188,26.276 L222.332,26.276 C222.980003,25.0519939 223.759995,24.1520029 224.672,23.576 C225.584005,22.9999971 226.495995,22.712 227.408,22.712 C227.912003,22.712 228.325998,22.7419997 228.65,22.802 C228.974002,22.8620003 229.267999,22.9519994 229.532,23.072 L228.668,27.644 C228.331998,27.5479995 228.020001,27.4760002 227.732,27.428 C227.443999,27.3799998 227.108002,27.356 226.724,27.356 C226.051997,27.356 225.350004,27.5959976 224.618,28.076 C223.885996,28.5560024 223.280002,29.4079939 222.8,30.632 L222.8,41 L217.508,41 L217.508,23.144 Z M232.556,27.284 L230.108,27.284 L230.108,23.36 L232.844,23.144 L233.456,18.392 L237.848,18.392 L237.848,23.144 L242.132,23.144 L242.132,27.284 L237.848,27.284 L237.848,34.448 C237.848,35.456005 238.057998,36.1819978 238.478,36.626 C238.898002,37.0700022 239.455997,37.292 240.152,37.292 C240.440001,37.292 240.733999,37.2560004 241.034,37.184 C241.334002,37.1119996 241.603999,37.0280005 241.844,36.932 L242.672,40.784 C242.191998,40.9280007 241.628003,41.0719993 240.98,41.216 C240.331997,41.3600007 239.576004,41.432 238.712,41.432 C237.607994,41.432 236.666004,41.2640017 235.886,40.928 C235.105996,40.5919983 234.470002,40.124003 233.978,39.524 C233.485998,38.923997 233.126001,38.1980043 232.898,37.346 C232.669999,36.4939957 232.556,35.5520052 232.556,34.52 L232.556,27.284 Z M245.624,15.764 L250.916,15.764 L250.916,21.956 L250.664,25.16 C251.336003,24.559997 252.115996,24.0020026 253.004,23.486 C253.892004,22.9699974 254.947994,22.712 256.172,22.712 C258.11601,22.712 259.525996,23.3479936 260.402,24.62 C261.278004,25.8920064 261.716,27.6559887 261.716,29.912 L261.716,41 L256.424,41 L256.424,30.596 C256.424,29.2999935 256.250002,28.4120024 255.902,27.932 C255.553998,27.4519976 254.996004,27.212 254.228,27.212 C253.555997,27.212 252.980002,27.3619985 252.5,27.662 C252.019998,27.9620015 251.492003,28.3879972 250.916,28.94 L250.916,41 L245.624,41 L245.624,15.764 Z" id="hootsworth" fill="#4A5F7E"></path>
            <g id="owl-logo">
                <g id="Group">
                    <path d="M31.6377358,0 C14.1283019,0 0,14.1283019 0,31.6377358 C0,40.2113208 3.38113208,47.9396226 8.81509434,53.6150943 C8.57358491,52.890566 8.57358491,52.2867925 8.57358491,51.3207547 C8.57358491,38.4 19.0792453,28.0150943 31.8792453,28.0150943 C44.8,28.0150943 55.1849057,38.5207547 55.1849057,51.3207547 C55.1849057,51.9245283 55.0641509,52.5283019 54.8226415,53.1320755 C60.0150943,47.4566038 63.2754717,39.9698113 63.2754717,31.6377358 C63.2754717,14.1283019 49.1471698,0 31.6377358,0" id="Shape" fill="#A4DEF8" fill-rule="nonzero"></path>
                    <path d="M31.2754717,62.7924528 C22.3396226,62.7924528 14.2490566,59.0490566 8.45283019,53.1320755" id="Shape" fill="#414242" fill-rule="nonzero"></path>
                    <path d="M54.5811321,53.1320755 C48.7849057,59.4113208 40.5735849,63.2754717 31.3962264,63.2754717" id="Shape" fill="#414242" fill-rule="nonzero"></path>
                    <path d="M31.5169811,63.0339623 C40.6943396,63.0339623 49.0264151,59.1698113 54.7018868,52.890566 C54.9433962,52.2867925 55.0641509,51.6830189 55.0641509,51.0792453 C55.0641509,38.1584906 44.5584906,27.7735849 31.7584906,27.7735849 C18.8377358,27.7735849 8.45283019,38.2792453 8.45283019,51.0792453 C8.45283019,52.045283 8.45283019,52.6490566 8.69433962,53.3735849 C14.490566,59.290566 22.5811321,63.0339623 31.5169811,63.0339623" id="Shape" fill="#414242" fill-rule="nonzero"></path>
                    <path d="M55.2445376,18.1132075 L42.6860471,18.1132075 C31.3351037,18.1132075 31.3351037,25.3584906 31.3351037,25.3584906 C31.3351037,25.3584906 31.3351037,18.1132075 19.9841603,18.1132075 L7.30491498,18.1132075 C7.30491498,18.1132075 6.09736781,32.845283 14.550198,32.845283 L31.3351037,32.845283 L48.1200093,32.845283 C56.4520848,32.845283 55.2445376,18.1132075 55.2445376,18.1132075" id="Shape" fill="#414242" fill-rule="nonzero"></path>
                    <path d="M28.0150943,35.1396226 C28.0150943,39.8490566 24.1509434,43.7132075 19.4415094,43.7132075 C14.7320755,43.7132075 10.8679245,39.8490566 10.8679245,35.1396226 C10.8679245,30.4301887 14.7320755,26.5660377 19.4415094,26.5660377 C24.1509434,26.5660377 28.0150943,30.4301887 28.0150943,35.1396226" id="Shape" fill="#F3F4F4" fill-rule="nonzero"></path>
                    <path d="M20.2867925,44.1962264 C15.0943396,44.1962264 10.8679245,39.9698113 10.8679245,34.7773585 C10.8679245,29.5849057 15.0943396,25.3584906 20.2867925,25.3584906 C25.4792453,25.3584906 29.7056604,29.5849057 29.7056604,34.7773585 C29.7056604,39.9698113 25.4792453,44.1962264 20.2867925,44.1962264 M20.2867925,27.0490566 C15.9396226,27.0490566 12.4377358,30.5509434 12.4377358,34.8981132 C12.4377358,39.245283 15.9396226,42.7471698 20.2867925,42.7471698 C24.6339623,42.7471698 28.1358491,39.245283 28.1358491,34.8981132 C28.0150943,30.5509434 24.5132075,27.0490566 20.2867925,27.0490566" id="Shape" fill="#414242" fill-rule="nonzero"></path>
                    <path d="M20.5283019,35.0188679 L22.8226415,30.7924528 C22.0981132,30.4301887 21.3735849,30.1886792 20.5283019,30.1886792 C17.8716981,30.1886792 15.6981132,32.3622642 15.6981132,35.0188679 C15.6981132,37.6754717 17.8716981,39.8490566 20.5283019,39.8490566 C23.1849057,39.8490566 25.3584906,37.6754717 25.3584906,35.0188679 C25.3584906,34.6566038 25.3584906,34.1735849 25.2377358,33.8113208 L20.5283019,35.0188679 Z" id="Shape" fill="#241F21" fill-rule="nonzero"></path>
                    <path d="M52.1660377,35.1396226 C52.1660377,39.8490566 48.3018868,43.7132075 43.5924528,43.7132075 C38.8830189,43.7132075 35.0188679,39.8490566 35.0188679,35.1396226 C35.0188679,30.4301887 38.8830189,26.5660377 43.5924528,26.5660377 C48.3018868,26.5660377 52.1660377,30.4301887 52.1660377,35.1396226" id="Shape" fill="#F3F4F4" fill-rule="nonzero"></path>
                    <path d="M43.2301887,44.1962264 C38.0377358,44.1962264 33.8113208,39.9698113 33.8113208,34.7773585 C33.8113208,29.5849057 38.0377358,25.3584906 43.2301887,25.3584906 C48.4226415,25.3584906 52.6490566,29.5849057 52.6490566,34.7773585 C52.6490566,39.9698113 48.4226415,44.1962264 43.2301887,44.1962264 M43.2301887,27.0490566 C38.8830189,27.0490566 35.3811321,30.5509434 35.3811321,34.8981132 C35.3811321,39.245283 38.8830189,42.7471698 43.2301887,42.7471698 C47.5773585,42.7471698 51.0792453,39.245283 51.0792453,34.8981132 C51.0792453,30.5509434 47.5773585,27.0490566 43.2301887,27.0490566" id="Shape" fill="#414242" fill-rule="nonzero"></path>
                    <path d="M43.4716981,35.0188679 L45.7660377,30.7924528 C45.0415094,30.4301887 44.3169811,30.1886792 43.4716981,30.1886792 C40.8150943,30.1886792 38.6415094,32.3622642 38.6415094,35.0188679 C38.6415094,37.6754717 40.8150943,39.8490566 43.4716981,39.8490566 C46.1283019,39.8490566 48.3018868,37.6754717 48.3018868,35.0188679 C48.3018868,34.6566038 48.3018868,34.1735849 48.1811321,33.8113208 L43.4716981,35.0188679 Z" id="Shape" fill="#241F21" fill-rule="nonzero"></path>
                    <polygon id="Shape" fill="#EB922F" fill-rule="nonzero" points="35.2603774 37.4339623 32.1207547 42.9886792 28.9811321 37.4339623"></polygon>
                    <path d="M26.5660377,31.2754717 L26.5660377,35.3811321 C28.0150943,34.2943396 29.8264151,33.690566 31.7584906,33.690566 C33.690566,33.690566 35.5018868,34.2943396 36.9509434,35.3811321 L36.9509434,31.2754717 C35.3811321,30.5509434 33.5698113,30.1886792 31.7584906,30.1886792 C29.8264151,30.1886792 28.1358491,30.5509434 26.5660377,31.2754717" id="Shape" fill="#F3F4F4" fill-rule="nonzero"></path>
                </g>
            </g>
        </g>
    </g>
</svg>