<?xml version="1.0" encoding="utf-8"?>
<!-- Generator: Adobe Illustrator 22.0.1, SVG Export Plug-In . SVG Version: 6.00 Build 0)  -->
<svg version="1.1" id="Layer_1" xmlns="http://www.w3.org/2000/svg" xmlns:xlink="http://www.w3.org/1999/xlink" x="0px" y="0px"
	 viewBox="0 0 310.5 92" style="enable-background:new 0 0 310.5 92;" xml:space="preserve">
<style type="text/css">
	.st0{fill:#3FAADD;}
	.st1{fill:#2F3259;}
	.st2{fill:#F3F4F4;}
	.st3{fill:#444545;}
	.st4{fill:#272426;}
	.st5{fill:#F79023;}
	.st6{fill:none;}
	.st7{opacity:0.3;fill:none;stroke:#2F3259;stroke-width:0.915;stroke-miterlimit:10;enable-background:new    ;}
	.st8{fill:#EB932E;}
	.st9{fill:#939BA1;}
</style>
<g>
	<g>
		<ellipse class="st0" cx="45.8" cy="46.8" rx="42.8" ry="42.8"/>
		<path class="st1" d="M76.9,76c0.5-1,0.7-2,0.7-3c0-17.4-14.1-31.6-31.6-31.6c-17.4,0-31.6,14.1-31.6,31.6c0,1.5,0.2,2.5,0.8,3.8
			c7.2,7.1,17.2,12.2,28,12.8c0.1,0,0.2,0,0.3,0h0.1c0.7,0,1.4,0,2.1,0C58,89.6,69.1,84.4,76.9,76z"/>
		<path class="st1" d="M78,29.5H61c-15.4,0-15.4,9.8-15.4,9.8s0-9.8-15.4-9.8h-17c0,0-1.6,19.9,9.7,19.9h22.7h22.7
			C79.6,49.3,78,29.5,78,29.5"/>
		<path class="st2" d="M41.7,51c0,6.4-5.2,11.7-11.7,11.7c-6.4,0-11.7-5.2-11.7-11.7c0-6.4,5.2-11.7,11.7-11.7
			C36.5,39.4,41.7,44.6,41.7,51"/>
		<path class="st3" d="M30.1,63.8c-7,0-12.8-5.7-12.8-12.7S23,38.3,30.1,38.3c7,0,12.8,5.7,12.8,12.8C42.8,58.1,37.1,63.8,30.1,63.8
			 M30.1,40.5c-5.8,0-10.6,4.7-10.6,10.6c0,5.8,4.7,10.6,10.6,10.6c5.8,0,10.6-4.7,10.6-10.6C40.6,45.2,35.9,40.5,30.1,40.5"/>
		<path class="st4" d="M30.1,51l3.1-5.7c-0.9-0.5-2-0.8-3.1-0.8c-3.6,0-6.5,2.9-6.5,6.5s2.9,6.5,6.5,6.5s6.5-2.9,6.5-6.5
			c0-0.6-0.1-1.1-0.2-1.6L30.1,51z"/>
		<path class="st2" d="M73.5,51c0,6.4-5.2,11.7-11.7,11.7c-6.4,0-11.7-5.2-11.7-11.7c0-6.4,5.2-11.7,11.7-11.7
			C68.2,39.4,73.5,44.6,73.5,51"/>
		<path class="st3" d="M61.8,63.8c-7,0-12.8-5.7-12.8-12.7s5.7-12.8,12.8-12.8c7,0,12.8,5.7,12.8,12.8
			C74.5,58.1,68.8,63.8,61.8,63.8 M61.8,40.5c-5.8,0-10.6,4.7-10.6,10.6c0,5.8,4.7,10.6,10.6,10.6c5.8,0,10.6-4.7,10.6-10.6
			S67.6,40.5,61.8,40.5"/>
		<path class="st4" d="M61.8,51l3.1-5.7c-0.9-0.5-2-0.8-3.1-0.8c-3.6,0-6.5,2.9-6.5,6.5s2.9,6.5,6.5,6.5s6.5-2.9,6.5-6.5
			c0-0.6-0.1-1.1-0.2-1.6L61.8,51z"/>
		<polygon class="st5" points="50.2,55.3 45.9,62.7 41.7,55.3 		"/>
		<path class="st2" d="M38.8,47.3v5.5c2-1.4,4.5-2.2,7.1-2.2s5.1,0.8,7.1,2.2v-5.5c-2.2-1-4.6-1.5-7.1-1.5S41,46.3,38.8,47.3"/>
	</g>
	<ellipse class="st6" cx="45.8" cy="46.8" rx="42.8" ry="42.8"/>
</g>
<g>
	<g>
		<path class="st1" d="M104,29.2h2.1v3.3l-0.1,1.7c0.7-0.7,1.6-1.3,2.8-1.3c1.9,0,2.7,1.3,2.7,3.5v5.5h-2v-5.3c0-1.5-0.4-2-1.4-2
			c-0.8,0-1.3,0.4-2,1.1v6.2H104V29.2z"/>
		<path class="st1" d="M113.5,37.5c0-2.9,2-4.6,4.2-4.6s4.2,1.7,4.2,4.6s-2,4.6-4.2,4.6S113.5,40.4,113.5,37.5z M119.8,37.5
			c0-1.8-0.8-3-2.1-3c-1.3,0-2.1,1.2-2.1,3s0.8,2.9,2.1,2.9C119,40.5,119.8,39.3,119.8,37.5z"/>
		<path class="st1" d="M123.4,37.5c0-2.9,2-4.6,4.2-4.6s4.2,1.7,4.2,4.6s-2,4.6-4.2,4.6S123.4,40.4,123.4,37.5z M129.6,37.5
			c0-1.8-0.8-3-2.1-3c-1.3,0-2.1,1.2-2.1,3s0.8,2.9,2.1,2.9C128.9,40.5,129.6,39.3,129.6,37.5z"/>
		<path class="st1" d="M133.7,39v-4.2h-1.2v-1.6l1.4-0.1l0.2-2.4h1.7v2.4h2.3v1.6h-2.3v4.2c0,1,0.4,1.6,1.3,1.6
			c0.3,0,0.7-0.1,0.9-0.2l0.4,1.5c-0.5,0.2-1.1,0.3-1.8,0.3C134.5,42.1,133.7,40.9,133.7,39z"/>
		<path class="st1" d="M138.9,40.9l1-1.3c0.8,0.6,1.5,1,2.4,1c1,0,1.4-0.5,1.4-1.1c0-0.7-1-1.1-1.9-1.4c-1.2-0.4-2.5-1.1-2.5-2.6
			s1.2-2.6,3.2-2.6c1.2,0,2.2,0.5,2.9,1.1l-1,1.3c-0.6-0.5-1.2-0.8-1.9-0.8c-0.9,0-1.3,0.4-1.3,1c0,0.7,0.9,1,1.9,1.3
			c1.2,0.4,2.5,1,2.5,2.7c0,1.5-1.2,2.7-3.4,2.7C141,42.1,139.7,41.6,138.9,40.9z"/>
		<path class="st1" d="M146.6,33.1h2.1l1.1,4.6c0.2,0.9,0.3,1.7,0.5,2.5h0.1c0.2-0.9,0.3-1.7,0.6-2.5l1.2-4.6h1.9l1.2,4.6
			c0.2,0.9,0.4,1.7,0.6,2.5h0.1c0.2-0.9,0.3-1.7,0.5-2.5l1.1-4.6h1.9l-2.2,8.8h-2.8l-1-4.1c-0.2-0.8-0.3-1.6-0.5-2.6h-0.1
			c-0.2,0.9-0.3,1.8-0.5,2.6l-1,4.1H149L146.6,33.1z"/>
		<path class="st1" d="M160.3,37.5c0-2.9,2-4.6,4.2-4.6s4.2,1.7,4.2,4.6s-2,4.6-4.2,4.6S160.3,40.4,160.3,37.5z M166.6,37.5
			c0-1.8-0.8-3-2.1-3s-2.1,1.2-2.1,3s0.8,2.9,2.1,2.9S166.6,39.3,166.6,37.5z"/>
		<path class="st1" d="M170.7,33.1h1.7l0.2,1.6h0.1c0.6-1.2,1.6-1.8,2.5-1.8c0.4,0,0.7,0.1,1,0.2l-0.4,1.8c-0.3-0.1-0.5-0.1-0.9-0.1
			c-0.7,0-1.6,0.5-2.1,1.8V42h-2.1L170.7,33.1L170.7,33.1z"/>
		<path class="st1" d="M177.8,39v-4.2h-1.3v-1.6l1.4-0.1l0.2-2.4h1.7v2.4h2.3v1.6h-2.3v4.2c0,1,0.4,1.6,1.3,1.6
			c0.3,0,0.7-0.1,0.9-0.2l0.4,1.5c-0.5,0.2-1.1,0.3-1.8,0.3C178.5,42.1,177.8,40.9,177.8,39z"/>
		<path class="st1" d="M183.9,29.2h2.1v3.3l-0.1,1.7c0.7-0.7,1.6-1.3,2.8-1.3c1.9,0,2.7,1.3,2.7,3.5v5.5h-2.1v-5.3
			c0-1.5-0.4-2-1.4-2c-0.8,0-1.3,0.4-2,1.1v6.2h-2.1V29.2H183.9z"/>
	</g>
	<g>
		<path class="st0" d="M105.3,50.1h5.6l6.5,20.9h-5l-2.7-10.6c-0.6-2.1-1.1-4.6-1.7-6.7h-0.1c-0.5,2.2-1.1,4.6-1.6,6.7L103.6,71
			h-4.8L105.3,50.1z M103,62.3h10V66h-10V62.3z"/>
		<path class="st0" d="M119.4,50.1h4.8l5.4,10.4l2.1,4.6h0.1c-0.2-2.2-0.6-5.1-0.6-7.6v-7.4h4.5V71h-4.8l-5.4-10.4l-2-4.6h-0.1
			c0.2,2.3,0.6,5.1,0.6,7.6V71h-4.5V50.1H119.4z"/>
		<path class="st0" d="M139.4,68.3l2.7-3.2c1.5,1.3,3.4,2.2,5.1,2.2c2,0,2.9-0.8,2.9-2c0-1.3-1.2-1.7-3-2.5l-2.7-1.2
			c-2.2-0.9-4.2-2.7-4.2-5.7c0-3.5,3.1-6.2,7.4-6.2c2.4,0,4.9,0.9,6.7,2.7l-2.4,3c-1.4-1.1-2.7-1.6-4.3-1.6c-1.6,0-2.7,0.7-2.7,1.9
			c0,1.3,1.4,1.7,3.2,2.5l2.7,1.1c2.5,1,4.1,2.7,4.1,5.7c0,3.5-2.9,6.5-7.9,6.5C144.4,71.3,141.5,70.3,139.4,68.3z"/>
		<path class="st0" d="M156.5,50.1h4.8l1.4,9.7c0.3,2.2,0.6,4.4,0.8,6.6h0.1c0.4-2.2,0.8-4.4,1.2-6.6l2.2-9.7h4l2.2,9.7
			c0.4,2.1,0.8,4.4,1.3,6.6h0.1c0.3-2.2,0.6-4.4,0.8-6.6l1.4-9.7h4.5L177.6,71h-5.9l-2-9.5c-0.3-1.6-0.6-3.3-0.8-4.8h-0.1
			c-0.3,1.6-0.5,3.2-0.8,4.8l-2,9.5h-5.8L156.5,50.1z"/>
		<path class="st0" d="M184.5,50.1h13.1v4h-8.4v4.2h7.1v4h-7.1v4.8h8.7v4h-13.4V50.1z"/>
		<path class="st0" d="M202.1,50.1h7.5c4.4,0,8,1.5,8,6.5c0,4.8-3.6,6.9-8,6.9h-2.8V71h-4.7V50.1z M209.2,59.7
			c2.5,0,3.8-1.1,3.8-3.1c0-2.1-1.3-2.8-3.8-2.8h-2.4v5.9H209.2z M208.7,62.2l3.3-3l6.7,11.8h-5.3L208.7,62.2z"/>
		<path class="st0" d="M219.9,68.3l2.7-3.2c1.5,1.3,3.4,2.2,5.1,2.2c2,0,2.9-0.8,2.9-2c0-1.3-1.2-1.7-3-2.5l-2.7-1.2
			c-2.2-0.9-4.2-2.7-4.2-5.7c0-3.5,3.1-6.2,7.4-6.2c2.4,0,4.9,0.9,6.7,2.7l-2.4,3c-1.4-1.1-2.7-1.6-4.3-1.6c-1.6,0-2.7,0.7-2.7,1.9
			c0,1.3,1.4,1.7,3.2,2.5l2.7,1.1c2.5,1,4.1,2.7,4.1,5.7c0,3.5-2.9,6.5-7.9,6.5C224.9,71.3,222,70.3,219.9,68.3z"/>
	</g>
	<line class="st7" x1="245.2" y1="51.8" x2="245.2" y2="70.5"/>
	<g>
		<g>
			<polyline class="st8" points="297.7,57 297.7,57.9 299.3,58.8 299.3,57 			"/>
			<g>
				<path class="st9" d="M268.2,63.2c0,0.8,0.5,1.4,1.4,1.4c0.7,0,1-0.2,1.4-0.6l1,0.9c-0.6,0.6-1.2,1-2.4,1c-1.5,0-2.9-0.7-2.9-3.2
					c0-2,1.1-3.2,2.7-3.2c1.7,0,2.7,1.3,2.7,3v0.7L268.2,63.2L268.2,63.2z M270.4,61.4c-0.2-0.4-0.5-0.6-1-0.6s-0.9,0.3-1,0.6
					c-0.1,0.2-0.1,0.4-0.1,0.7h2.4C270.6,61.8,270.5,61.7,270.4,61.4z"/>
				<path class="st9" d="M280.3,65.8V62c0-0.8-0.5-1.1-1-1.1s-1,0.3-1,1.1v3.8h-1.6v-3.7c0-0.8-0.5-1.1-1-1.1s-1,0.3-1,1.1v3.7h-1.6
					v-6.2h1.5v0.6c0.4-0.4,1-0.6,1.6-0.6c0.7,0,1.3,0.2,1.6,0.8c0.5-0.6,1.1-0.8,1.9-0.8c0.6,0,1.2,0.2,1.5,0.6
					c0.5,0.5,0.7,1.1,0.7,1.8v4L280.3,65.8L280.3,65.8z"/>
				<path class="st9" d="M285,65.8c-1.3,0-1.8-0.9-1.8-1.8v-3.1h-0.7v-1.2h0.7v-1.8l1.6,0.7v1.1h1.1v1.2h-1.1v3
					c0,0.4,0.2,0.6,0.5,0.6h0.6v1.3L285,65.8L285,65.8z"/>
				<path class="st9" d="M290.2,61.3c-0.2-0.2-0.4-0.4-0.8-0.4c-0.5,0-1,0.4-1,1.1v3.7h-1.6v-6.2h1.5v0.6c0.3-0.4,0.9-0.7,1.6-0.7
					c0.6,0,1,0.2,1.5,0.6L290.2,61.3z"/>
				<path class="st9" d="M295,65.8v-0.5c-0.4,0.4-0.8,0.6-1.5,0.6s-1.2-0.2-1.6-0.6c-0.3-0.4-0.5-0.8-0.5-1.4c0-1,0.7-1.8,2.1-1.8
					h1.5v-0.3c0-0.7-0.3-1-1.2-1c-0.6,0-0.9,0.1-1.2,0.5l-1-1c0.6-0.7,1.2-0.9,2.2-0.9c1.8,0,2.7,0.7,2.7,2.2v4.1L295,65.8L295,65.8
					z M294.9,63.2h-1.2c-0.6,0-0.9,0.3-0.9,0.7c0,0.4,0.3,0.7,0.9,0.7c0.4,0,0.7,0,1-0.3c0.2-0.2,0.2-0.4,0.2-0.8V63.2L294.9,63.2z"
					/>
				<path class="st9" d="M304.1,65.8V62c0-0.8-0.5-1.1-1-1.1s-1,0.3-1,1.1v3.7h-1.6v-6.2h1.5v0.6c0.4-0.4,1-0.6,1.6-0.6
					s1.1,0.2,1.5,0.6c0.5,0.5,0.6,1.1,0.6,1.8v4L304.1,65.8L304.1,65.8z"/>
			</g>
			<polygon class="st9" points="297.7,65.8 297.7,58.9 299.3,59.8 299.3,65.8 			"/>
		</g>
		<g>
			<path class="st9" d="M254.5,64.9L254.5,64.9l-0.1,0.6h-0.9v-8.8h1v2.4v1.1c0.6-0.5,1.2-0.8,1.9-0.8c1.6,0,2.4,1.2,2.4,3.1
				c0,2.1-1.2,3.3-2.6,3.3C255.6,65.7,255,65.4,254.5,64.9z M257.8,62.4c0-1.3-0.5-2.2-1.6-2.2c-0.5,0-1,0.3-1.6,0.8v3.2
				c0.5,0.5,1.1,0.6,1.5,0.6C257,64.8,257.8,63.9,257.8,62.4z"/>
			<path class="st9" d="M259.7,68l0.2-0.8c0.1,0,0.3,0.1,0.5,0.1c0.7,0,1.1-0.5,1.4-1.3l0.1-0.4l-2.4-6h1l1.2,3.3
				c0.2,0.5,0.4,1.1,0.6,1.7l0,0c0.2-0.5,0.3-1.2,0.5-1.7l1.1-3.3h1l-2.3,6.5c-0.4,1.2-1,2.1-2.3,2.1C260.2,68.1,259.9,68,259.7,68z
				"/>
		</g>
	</g>
</g>
</svg>
